# xmcd CD database file
#
# Track frame offsets:
#	150
#	41455
#	61240
#	113280
#	124260
#	134575
#	178115
#	188497
#
# Disc length: 3308 seconds
#
# Revision: 2
# Processed by: cddbd v1.5.1PL2 Copyright (c) Steve Scherf et al.
# Submitted via: CDex 1.51
#
DISCID=660cea08
DTITLE=Ferenc Fricsay, Radio-Symphonie-Orchester Berlin - Johann Strauss WALTZES and POLKAS
DYEAR=1961
DGENRE=Classical
TTITLE0=Die Fledermaus: Ouvert・e
TTITLE1=Annen-Polka op. 117
TTITLE2=Kaiser-Walzer op. 437
TTITLE3=Tritsch-Tratsch-Polka op. 214
TTITLE4=Radetzky-Marsch op. 228
TTITLE5=An der sch?en, blauen Donau op. 314
TTITLE6=Eljen a Magyar! op. 332
TTITLE7=G'schichten aus dem Wienerwald op. 325
EXTD=YEAR: 1961
EXTT0=
EXTT1=
EXTT2=
EXTT3=
EXTT4=
EXTT5=
EXTT6=
EXTT7=
PLAYORDER=
